<svg id="svg" version="1.1" xmlns="http://www.w3.org/2000/svg" xmlns:xlink="http://www.w3.org/1999/xlink" width="400" height="400" viewBox="0, 0, 400,400"><g id="svgg"><path id="path0" d="M60.712 134.446 C 59.454 134.581,57.969 134.990,57.412 135.355 L 56.400 136.018 56.327 162.109 C 56.230 196.627,56.079 194.175,58.342 194.784 C 61.431 195.616,357.847 195.124,358.686 194.286 C 359.358 193.613,359.400 191.895,359.400 164.997 L 359.400 136.422 358.489 135.511 L 357.578 134.600 288.889 134.500 C 102.109 134.229,62.821 134.219,60.712 134.446 " stroke="none" fill="#76bc4d" fill-rule="evenodd"></path><path id="path1" d="M57.700 205.125 C 56.439 205.247,56.400 205.306,56.385 207.125 C 56.373 208.629,56.382 254.639,56.396 263.701 L 56.400 266.001 207.900 265.901 L 359.400 265.800 359.400 235.600 L 359.400 205.400 209.200 205.200 C 126.590 205.090,58.415 205.056,57.700 205.125 M56.194 283.300 C 55.906 284.475,56.131 336.264,56.425 336.559 C 57.154 337.287,83.071 336.805,85.799 336.013 C 87.338 335.566,88.958 335.197,89.399 335.193 C 90.884 335.179,96.579 331.051,98.207 328.808 C 100.411 325.769,101.547 323.724,101.987 322.000 C 102.240 321.010,102.751 319.570,103.123 318.800 C 103.688 317.632,103.800 316.107,103.800 309.600 L 103.800 301.800 102.449 297.900 C 101.707 295.755,100.954 294.000,100.776 294.000 C 100.599 294.000,100.340 293.643,100.202 293.206 C 99.777 291.866,96.505 288.129,94.909 287.160 C 94.079 286.656,93.264 286.023,93.098 285.753 C 92.931 285.483,92.211 285.141,91.498 284.992 C 90.784 284.844,89.610 284.383,88.889 283.968 C 86.675 282.694,83.106 282.406,69.508 282.403 L 56.415 282.400 56.194 283.300 M126.400 282.757 C 125.605 282.978,125.275 283.482,124.793 285.217 C 124.459 286.418,123.896 287.940,123.541 288.600 C 123.187 289.260,122.767 290.430,122.609 291.200 C 122.452 291.970,121.999 293.163,121.604 293.850 C 121.209 294.538,120.584 296.138,120.215 297.406 C 119.847 298.674,119.309 300.092,119.020 300.556 C 118.731 301.020,118.382 301.940,118.244 302.600 C 118.106 303.260,117.566 304.700,117.044 305.800 C 116.522 306.900,115.783 308.700,115.402 309.800 C 115.021 310.900,114.286 313.022,113.767 314.515 C 113.249 316.008,112.549 317.623,112.212 318.104 C 111.875 318.585,111.600 319.353,111.600 319.810 C 111.600 320.268,111.163 321.533,110.629 322.621 C 110.095 323.710,109.451 325.410,109.197 326.400 C 108.943 327.390,108.505 328.560,108.224 329.000 C 107.501 330.134,106.400 334.093,106.400 335.562 L 106.400 336.800 110.911 336.800 C 116.011 336.800,116.966 336.432,117.403 334.300 C 117.550 333.585,118.001 332.280,118.406 331.400 C 118.811 330.520,119.338 329.052,119.577 328.138 C 119.815 327.224,120.352 326.054,120.769 325.538 L 121.528 324.600 131.664 324.600 L 141.800 324.600 143.073 327.200 C 143.773 328.630,144.552 330.790,144.805 332.000 C 145.098 333.399,145.688 334.673,146.427 335.500 L 147.589 336.800 152.394 336.800 L 157.200 336.800 157.200 335.294 C 157.200 334.466,156.865 333.161,156.455 332.394 C 156.046 331.627,155.413 329.974,155.050 328.720 C 154.687 327.467,154.230 326.342,154.035 326.222 C 153.840 326.101,153.454 325.058,153.177 323.903 C 152.900 322.748,152.252 321.011,151.737 320.042 C 151.221 319.073,150.800 317.884,150.800 317.400 C 150.800 316.916,150.379 315.727,149.863 314.758 C 149.348 313.789,148.700 312.052,148.423 310.897 C 148.146 309.742,147.760 308.699,147.565 308.578 C 147.370 308.458,146.918 307.333,146.560 306.080 C 146.203 304.826,145.594 303.260,145.209 302.600 C 144.823 301.940,144.292 300.500,144.028 299.400 C 143.764 298.300,143.296 297.012,142.989 296.537 C 142.682 296.063,142.219 294.803,141.961 293.737 C 141.703 292.672,141.170 291.260,140.776 290.600 C 140.383 289.940,139.837 288.500,139.564 287.400 C 139.037 285.271,138.237 283.715,137.252 282.900 C 136.597 282.358,128.234 282.248,126.400 282.757 M166.400 282.758 L 165.400 283.036 165.286 308.618 C 165.223 322.688,165.276 334.785,165.404 335.500 L 165.636 336.800 170.395 336.800 C 177.102 336.800,176.400 340.039,176.400 309.101 L 176.400 283.180 175.374 282.790 C 174.222 282.352,167.939 282.330,166.400 282.758 M80.086 291.762 C 81.029 292.071,82.790 292.604,84.000 292.946 C 85.210 293.288,86.497 293.916,86.860 294.341 C 87.223 294.767,87.764 295.269,88.062 295.458 C 91.907 297.884,94.444 309.782,92.432 315.952 C 91.974 317.356,91.600 318.726,91.600 318.998 C 91.600 320.059,88.448 324.059,86.698 325.218 C 82.668 327.888,69.864 328.664,67.578 326.378 C 66.579 325.379,66.378 295.013,67.358 293.244 C 68.497 291.190,75.761 290.344,80.086 291.762 M133.437 298.740 C 133.579 299.543,134.214 301.400,134.848 302.867 C 135.481 304.334,136.000 305.920,136.000 306.392 C 136.000 306.864,136.437 308.183,136.970 309.325 C 139.833 315.448,138.912 316.544,131.071 316.339 C 124.495 316.168,123.072 315.273,125.000 312.521 C 125.330 312.050,125.886 310.525,126.236 309.132 C 126.586 307.740,127.119 306.212,127.421 305.737 C 127.723 305.263,128.183 304.003,128.443 302.937 C 129.790 297.429,132.763 294.930,133.437 298.740 " stroke="none" fill="#553915" fill-rule="evenodd"></path><path id="path2" d="M0.000 200.000 L 0.000 400.000 200.000 400.000 L 400.000 400.000 400.000 200.000 L 400.000 0.000 200.000 0.000 L 0.000 0.000 0.000 200.000 M356.316 63.047 C 360.761 63.460,360.449 60.966,360.314 95.018 C 360.208 121.820,360.150 123.912,359.491 124.918 L 358.782 126.000 208.691 125.995 C 126.141 125.992,58.188 125.879,57.684 125.744 C 55.601 125.186,55.623 125.521,55.587 94.443 C 55.550 62.552,55.469 63.596,58.004 63.160 C 59.917 62.832,352.804 62.720,356.316 63.047 M360.056 133.564 L 361.000 134.329 361.200 163.464 C 361.409 193.874,361.366 195.212,360.138 196.439 C 359.403 197.174,355.709 197.193,207.993 197.209 L 56.600 197.225 55.700 196.190 L 54.800 195.155 54.800 164.807 L 54.800 134.458 55.854 133.629 L 56.908 132.800 208.010 132.800 C 356.167 132.800,359.130 132.815,360.056 133.564 M360.785 204.307 L 361.658 205.015 361.626 235.407 L 361.594 265.800 360.575 266.700 L 359.555 267.600 207.854 267.600 C 87.117 267.600,56.016 267.498,55.484 267.100 C 54.622 266.456,54.366 205.204,55.221 204.174 C 56.039 203.190,359.568 203.322,360.785 204.307 M85.625 281.278 C 88.461 281.635,90.235 282.068,91.025 282.598 C 91.671 283.032,92.830 283.706,93.600 284.096 C 96.442 285.536,99.569 288.390,100.663 290.542 C 101.014 291.234,101.616 292.101,102.000 292.469 C 102.385 292.836,102.826 293.826,102.982 294.669 C 103.138 295.511,103.615 296.577,104.044 297.038 C 106.125 299.276,105.931 320.041,103.807 322.394 C 103.506 322.727,103.044 323.861,102.779 324.913 C 102.504 326.006,101.977 326.998,101.549 327.227 C 101.137 327.448,100.800 327.889,100.800 328.209 C 100.800 328.835,95.876 334.000,95.279 334.000 C 95.080 334.000,94.440 334.442,93.857 334.982 C 93.274 335.522,92.123 336.085,91.299 336.233 C 90.474 336.380,89.530 336.731,89.200 337.011 C 87.798 338.202,85.219 338.396,70.729 338.398 C 55.962 338.400,55.420 338.355,54.763 337.071 C 54.582 336.717,54.425 284.282,54.602 283.298 C 55.140 280.316,55.091 280.326,69.000 280.548 C 75.820 280.657,83.301 280.986,85.625 281.278 M137.944 281.171 C 139.945 282.192,140.273 282.652,140.609 284.905 C 140.765 285.952,141.233 287.243,141.651 287.773 C 142.068 288.304,142.585 289.666,142.800 290.800 C 143.015 291.934,143.538 293.304,143.962 293.843 C 144.387 294.382,144.859 295.568,145.013 296.478 C 145.167 297.387,145.704 298.905,146.207 299.851 C 146.709 300.797,147.247 302.490,147.402 303.614 C 147.556 304.737,147.922 305.749,148.213 305.861 C 148.815 306.091,149.600 308.086,149.600 309.382 C 149.600 309.856,150.031 310.829,150.558 311.543 C 151.084 312.256,151.640 313.669,151.791 314.682 C 151.943 315.695,152.410 316.991,152.829 317.562 C 153.248 318.133,153.771 319.559,153.991 320.731 C 154.211 321.903,154.732 323.296,155.149 323.827 C 155.567 324.357,156.035 325.641,156.191 326.679 C 156.347 327.718,156.807 328.991,157.214 329.508 C 157.621 330.026,158.164 331.465,158.422 332.708 C 158.680 333.951,159.149 335.361,159.464 335.841 C 160.685 337.705,158.746 338.400,152.326 338.400 C 144.877 338.400,143.612 337.640,143.602 333.162 C 143.601 332.591,143.250 331.807,142.823 331.421 C 142.395 331.034,141.932 330.151,141.793 329.459 C 141.210 326.557,142.104 326.800,132.031 326.800 C 121.363 326.800,121.140 326.877,120.610 330.731 C 120.454 331.861,119.995 333.208,119.588 333.724 C 119.182 334.241,118.724 335.189,118.571 335.832 C 117.984 338.295,117.674 338.400,111.000 338.400 C 103.343 338.400,101.817 337.018,104.793 332.776 C 105.188 332.213,105.720 330.748,105.975 329.521 C 106.230 328.293,106.775 326.985,107.186 326.613 C 107.615 326.224,108.049 325.101,108.203 323.976 C 108.352 322.897,108.847 321.540,109.304 320.959 C 109.761 320.378,110.278 318.998,110.453 317.893 C 110.627 316.788,111.118 315.505,111.543 315.042 C 111.968 314.579,112.445 313.390,112.604 312.400 C 112.905 310.526,113.391 309.351,114.205 308.538 C 114.468 308.275,114.801 307.202,114.944 306.153 C 115.088 305.104,115.546 303.875,115.963 303.423 C 116.379 302.970,116.927 301.582,117.180 300.337 C 117.434 299.093,117.976 297.689,118.386 297.216 C 118.796 296.744,119.253 295.470,119.402 294.386 C 119.551 293.302,120.010 291.986,120.423 291.462 C 120.835 290.938,121.365 289.630,121.600 288.555 C 121.835 287.480,122.359 286.143,122.764 285.584 C 123.168 285.026,123.624 284.003,123.775 283.312 C 124.273 281.047,125.799 280.510,131.917 280.447 C 135.648 280.409,136.696 280.535,137.944 281.171 M175.640 280.845 C 178.592 281.811,178.400 279.789,178.400 309.844 C 178.400 342.213,179.413 338.469,170.701 338.310 C 164.669 338.201,164.619 338.192,164.113 337.200 C 163.711 336.413,163.624 330.423,163.701 309.077 L 163.800 281.954 164.800 281.186 C 165.972 280.286,173.234 280.057,175.640 280.845 M69.644 294.147 C 69.319 294.539,69.220 299.099,69.295 310.247 L 69.400 325.800 76.069 325.800 C 82.434 325.800,82.781 325.759,83.694 324.900 C 84.221 324.405,84.847 324.000,85.086 324.000 C 85.574 324.000,88.400 321.287,88.400 320.818 C 88.400 320.653,88.833 320.050,89.362 319.478 C 91.388 317.293,91.357 303.472,89.319 300.122 C 86.977 296.274,84.299 294.320,80.833 293.934 C 76.206 293.419,70.153 293.534,69.644 294.147 M132.047 299.831 C 132.021 300.069,131.481 301.059,130.847 302.031 C 130.213 303.004,129.574 304.642,129.427 305.672 C 129.280 306.701,128.833 307.961,128.434 308.472 C 127.727 309.375,126.700 313.900,127.065 314.500 C 127.165 314.665,129.397 314.800,132.024 314.800 L 136.800 314.800 136.800 313.726 C 136.800 313.135,136.455 312.280,136.034 311.826 C 135.612 311.372,135.073 309.935,134.835 308.633 C 134.597 307.331,134.130 305.965,133.797 305.597 C 133.464 305.229,132.945 303.684,132.643 302.164 C 132.340 300.644,132.072 299.594,132.047 299.831 " stroke="none" fill="#fafbfa" fill-rule="evenodd"></path><path id="path3" d="M58.004 63.160 C 55.469 63.596,55.550 62.552,55.587 94.443 C 55.623 125.521,55.601 125.186,57.684 125.744 C 58.188 125.879,126.141 125.992,208.691 125.995 L 358.782 126.000 359.491 124.918 C 360.150 123.912,360.208 121.820,360.314 95.018 C 360.449 60.966,360.761 63.460,356.316 63.047 C 352.804 62.720,59.917 62.832,58.004 63.160 M55.854 133.629 L 54.800 134.458 54.800 164.807 L 54.800 195.155 55.700 196.190 L 56.600 197.225 207.993 197.209 C 355.709 197.193,359.403 197.174,360.138 196.439 C 361.366 195.212,361.409 193.874,361.200 163.464 L 361.000 134.329 360.056 133.564 C 359.130 132.815,356.167 132.800,208.010 132.800 L 56.908 132.800 55.854 133.629 M359.651 134.261 C 360.663 135.481,360.655 193.996,359.643 195.246 L 358.871 196.200 209.735 196.309 C 52.944 196.423,56.671 196.453,55.929 195.071 C 55.320 193.937,55.444 135.269,56.057 134.531 C 56.747 133.700,54.983 133.710,208.651 133.654 C 348.138 133.604,359.142 133.648,359.651 134.261 M55.280 204.080 C 55.016 204.344,54.800 204.834,54.800 205.169 C 54.800 205.601,54.977 205.526,55.408 204.911 C 55.850 204.279,56.529 204.003,57.908 203.894 L 59.800 203.744 57.780 203.672 C 56.646 203.632,55.549 203.811,55.280 204.080 M210.080 203.999 C 332.373 204.163,360.056 204.296,360.480 204.720 C 361.454 205.695,361.220 265.273,360.238 266.358 L 359.476 267.200 207.761 267.200 L 56.045 267.200 55.423 266.311 C 54.923 265.598,54.800 265.555,54.800 266.097 C 54.800 267.616,53.165 267.600,207.951 267.600 L 359.555 267.600 360.575 266.700 L 361.594 265.800 361.626 235.407 L 361.658 205.015 360.785 204.307 C 359.953 203.633,352.854 203.605,210.056 203.699 L 60.200 203.798 210.080 203.999 M55.718 281.173 C 54.648 282.173,54.303 283.822,54.500 287.000 C 54.644 289.322,54.651 289.301,54.724 286.354 C 54.784 283.955,54.976 283.084,55.629 282.254 L 56.458 281.200 66.329 281.208 C 80.905 281.220,87.511 281.720,89.897 282.990 C 90.940 283.546,91.985 284.000,92.218 284.000 C 93.533 284.000,99.299 289.091,100.404 291.227 C 100.810 292.011,101.413 292.879,101.745 293.154 C 102.077 293.430,102.470 294.228,102.617 294.928 C 102.765 295.627,103.246 296.792,103.685 297.516 C 104.141 298.266,104.629 300.071,104.820 301.716 L 105.155 304.600 105.013 301.263 C 104.900 298.605,104.707 297.751,104.068 297.063 C 103.626 296.589,103.138 295.511,102.982 294.669 C 102.826 293.826,102.385 292.836,102.000 292.469 C 101.616 292.101,101.014 291.234,100.663 290.542 C 99.569 288.390,96.442 285.536,93.600 284.096 C 92.830 283.706,91.671 283.032,91.025 282.598 C 88.188 280.694,57.554 279.458,55.718 281.173 M126.200 280.900 C 124.499 281.477,124.089 281.885,123.775 283.312 C 123.624 284.003,123.168 285.026,122.764 285.584 C 122.359 286.143,121.835 287.480,121.600 288.555 C 121.365 289.630,120.835 290.938,120.423 291.462 C 120.010 291.986,119.551 293.302,119.402 294.386 C 119.253 295.470,118.796 296.744,118.386 297.216 C 117.976 297.689,117.434 299.093,117.180 300.337 C 116.927 301.582,116.379 302.970,115.963 303.423 C 115.546 303.875,115.088 305.104,114.944 306.153 C 114.801 307.202,114.468 308.275,114.205 308.538 C 113.391 309.351,112.905 310.526,112.604 312.400 C 112.445 313.390,111.968 314.579,111.543 315.042 C 111.118 315.505,110.627 316.788,110.453 317.893 C 110.278 318.998,109.761 320.378,109.304 320.959 C 108.847 321.540,108.352 322.897,108.203 323.976 C 108.049 325.101,107.615 326.224,107.186 326.613 C 106.775 326.985,106.230 328.293,105.975 329.521 C 105.720 330.748,105.188 332.213,104.793 332.776 C 101.817 337.018,103.343 338.400,111.000 338.400 C 117.674 338.400,117.984 338.295,118.571 335.832 C 118.724 335.189,119.182 334.241,119.588 333.724 C 119.995 333.208,120.454 331.861,120.610 330.731 C 121.140 326.877,121.363 326.800,132.031 326.800 C 142.104 326.800,141.210 326.557,141.793 329.459 C 141.932 330.151,142.395 331.034,142.823 331.421 C 143.250 331.807,143.601 332.591,143.602 333.162 C 143.612 337.640,144.877 338.400,152.326 338.400 C 158.746 338.400,160.685 337.705,159.464 335.841 C 159.149 335.361,158.680 333.951,158.422 332.708 C 158.164 331.465,157.621 330.026,157.214 329.508 C 156.807 328.991,156.347 327.718,156.191 326.679 C 156.035 325.641,155.567 324.357,155.149 323.827 C 154.732 323.296,154.211 321.903,153.991 320.731 C 153.771 319.559,153.248 318.133,152.829 317.562 C 152.410 316.991,151.943 315.695,151.791 314.682 C 151.640 313.669,151.084 312.256,150.558 311.543 C 150.031 310.829,149.600 309.856,149.600 309.382 C 149.600 308.086,148.815 306.091,148.213 305.861 C 147.922 305.749,147.556 304.737,147.402 303.614 C 147.247 302.490,146.709 300.797,146.207 299.851 C 145.704 298.905,145.167 297.387,145.013 296.478 C 144.859 295.568,144.387 294.382,143.962 293.843 C 143.538 293.304,143.015 291.934,142.800 290.800 C 142.585 289.666,142.068 288.304,141.651 287.773 C 141.233 287.243,140.765 285.952,140.609 284.905 C 140.273 282.652,139.945 282.192,137.944 281.171 C 136.244 280.304,128.486 280.125,126.200 280.900 M164.800 281.186 L 163.800 281.954 163.701 309.077 C 163.624 330.423,163.711 336.413,164.113 337.200 C 164.844 338.634,176.219 338.981,177.590 337.610 C 178.769 336.431,178.875 283.431,177.700 282.089 C 176.081 280.241,166.870 279.596,164.800 281.186 M138.715 282.518 C 139.519 283.288,140.037 284.344,140.383 285.918 C 140.659 287.173,141.115 288.470,141.396 288.800 C 141.677 289.130,142.210 290.460,142.581 291.756 C 142.952 293.052,143.501 294.492,143.801 294.956 C 144.102 295.420,144.564 296.700,144.828 297.800 C 145.092 298.900,145.628 300.340,146.020 301.000 C 146.412 301.660,146.862 302.920,147.020 303.800 C 147.178 304.680,147.734 306.136,148.254 307.035 C 148.774 307.934,149.200 309.033,149.200 309.476 C 149.200 309.918,149.619 311.073,150.131 312.040 C 150.643 313.008,151.285 314.700,151.557 315.800 C 151.829 316.900,152.304 318.188,152.611 318.663 C 152.918 319.137,153.388 320.397,153.654 321.463 C 153.920 322.528,154.557 324.192,155.069 325.160 C 155.581 326.127,156.000 327.299,156.000 327.763 C 156.000 328.227,156.435 329.424,156.967 330.424 C 160.216 336.527,159.271 338.000,152.107 338.000 L 146.738 338.000 145.599 336.860 C 144.906 336.168,144.363 335.108,144.215 334.160 C 144.081 333.302,143.621 331.880,143.192 331.000 C 142.763 330.120,142.167 328.680,141.866 327.800 C 141.166 325.746,140.970 325.707,131.238 325.647 C 121.977 325.591,121.288 325.848,120.394 329.688 C 120.124 330.849,119.584 332.340,119.194 333.000 C 118.805 333.660,118.363 334.785,118.211 335.500 C 117.749 337.688,116.860 338.000,111.085 338.000 C 104.207 338.000,103.202 337.256,105.136 333.594 C 105.541 332.827,106.095 331.300,106.366 330.200 C 106.638 329.100,107.106 327.927,107.407 327.594 C 107.708 327.260,108.154 326.096,108.399 325.006 C 108.643 323.917,109.183 322.474,109.600 321.800 C 110.017 321.126,110.557 319.683,110.801 318.594 C 111.046 317.504,111.492 316.340,111.793 316.006 C 112.094 315.673,112.556 314.500,112.819 313.400 C 113.083 312.300,113.639 310.800,114.055 310.068 C 114.471 309.335,114.999 307.898,115.228 306.874 C 115.458 305.851,115.892 304.740,116.193 304.406 C 116.494 304.073,116.956 302.900,117.219 301.800 C 117.483 300.700,118.036 299.205,118.449 298.477 C 118.862 297.750,119.413 296.310,119.673 295.277 C 119.933 294.245,120.455 292.860,120.834 292.200 C 121.213 291.540,121.652 290.370,121.810 289.600 C 121.969 288.830,122.526 287.391,123.049 286.403 C 123.572 285.415,124.000 284.330,124.000 283.992 C 124.000 281.717,125.335 281.302,132.475 281.359 C 137.461 281.399,137.570 281.420,138.715 282.518 M175.670 281.619 C 178.110 282.276,178.032 281.284,177.911 310.030 L 177.800 336.471 176.842 337.246 C 175.211 338.567,165.227 338.205,164.517 336.800 C 164.126 336.025,164.010 329.900,164.006 309.589 C 163.999 280.621,163.896 281.777,166.505 281.525 C 169.836 281.203,174.297 281.249,175.670 281.619 M54.581 307.200 C 54.581 315.450,54.634 318.825,54.699 314.700 C 54.764 310.575,54.764 303.825,54.699 299.700 C 54.634 295.575,54.581 298.950,54.581 307.200 M69.381 293.621 C 68.480 294.617,68.350 324.776,69.242 325.851 C 69.597 326.278,70.999 326.381,75.549 326.316 L 81.400 326.233 75.400 326.016 L 69.400 325.800 69.295 310.247 C 69.172 291.994,68.706 293.593,74.149 293.621 C 83.568 293.668,86.036 294.726,89.319 300.122 C 91.357 303.472,91.388 317.293,89.362 319.478 C 88.833 320.050,88.400 320.653,88.400 320.818 C 88.400 321.321,85.556 324.000,85.022 324.000 C 84.748 324.000,84.207 324.350,83.820 324.778 C 83.433 325.205,82.730 325.631,82.258 325.723 L 81.400 325.891 82.265 325.946 C 83.605 326.030,87.168 323.455,88.928 321.128 C 91.835 317.288,92.478 304.994,90.013 300.400 C 89.600 299.630,88.953 298.433,88.576 297.739 C 88.198 297.045,87.509 296.283,87.044 296.045 C 86.580 295.806,85.734 295.235,85.163 294.775 C 82.950 292.989,70.759 292.098,69.381 293.621 M130.885 300.729 C 130.198 301.789,129.437 303.541,129.195 304.622 C 128.953 305.703,128.514 306.860,128.219 307.194 C 127.924 307.527,127.468 308.880,127.205 310.200 C 126.942 311.520,126.468 313.007,126.151 313.505 C 125.288 314.861,126.780 315.247,132.358 315.112 L 137.000 315.000 137.123 313.937 C 137.191 313.352,136.798 312.002,136.250 310.937 C 135.701 309.872,135.132 308.151,134.983 307.113 C 134.835 306.075,134.472 305.026,134.178 304.782 C 133.884 304.538,133.425 303.361,133.158 302.167 C 132.890 300.972,132.598 300.069,132.508 300.158 C 132.166 300.501,133.226 304.965,133.800 305.600 C 134.131 305.966,134.597 307.331,134.835 308.633 C 135.073 309.935,135.612 311.372,136.034 311.826 C 136.455 312.280,136.800 313.135,136.800 313.726 L 136.800 314.800 132.024 314.800 C 129.397 314.800,127.165 314.665,127.065 314.500 C 126.700 313.900,127.727 309.375,128.434 308.472 C 128.833 307.961,129.275 306.701,129.416 305.672 C 129.556 304.642,129.988 303.350,130.374 302.800 C 131.376 301.373,132.488 299.154,132.297 298.963 C 132.207 298.874,131.572 299.669,130.885 300.729 M105.351 309.200 C 105.351 311.730,105.416 312.765,105.496 311.500 C 105.575 310.235,105.575 308.165,105.496 306.900 C 105.416 305.635,105.351 306.670,105.351 309.200 M104.866 316.400 C 104.822 317.724,104.422 319.396,103.863 320.600 C 103.352 321.700,102.799 323.139,102.635 323.797 C 102.040 326.181,96.117 333.600,94.808 333.600 C 94.618 333.600,93.953 334.025,93.331 334.545 C 92.709 335.064,91.300 335.771,90.200 336.114 C 89.100 336.457,87.480 337.014,86.600 337.352 C 84.714 338.075,57.327 338.310,56.027 337.615 C 55.546 337.357,55.216 336.545,55.033 335.168 C 54.883 334.034,54.678 333.188,54.579 333.288 C 54.211 333.656,54.936 337.278,55.487 337.830 C 55.960 338.303,58.560 338.400,70.729 338.398 C 85.219 338.396,87.798 338.202,89.200 337.011 C 89.530 336.731,90.474 336.380,91.299 336.233 C 92.123 336.085,93.274 335.522,93.857 334.982 C 94.440 334.442,95.080 334.000,95.279 334.000 C 95.876 334.000,100.800 328.835,100.800 328.209 C 100.800 327.889,101.141 327.446,101.558 327.222 C 102.010 326.980,102.509 326.015,102.793 324.828 C 103.056 323.734,103.515 322.637,103.813 322.389 C 104.544 321.782,105.284 318.046,105.094 315.921 C 104.951 314.323,104.935 314.357,104.866 316.400 " stroke="none" fill="#b4dbfb" fill-rule="evenodd"></path><path id="path4" d="M57.329 133.878 C 55.653 134.205,55.660 134.091,55.559 164.607 C 55.449 197.934,55.252 195.813,58.499 196.180 C 59.654 196.310,127.711 196.368,209.735 196.309 L 358.871 196.200 359.643 195.246 C 360.655 193.996,360.663 135.481,359.651 134.261 C 359.134 133.638,60.507 133.260,57.329 133.878 M288.889 134.500 L 357.578 134.600 358.489 135.511 L 359.400 136.422 359.400 164.997 C 359.400 191.895,359.358 193.613,358.686 194.286 C 357.847 195.124,61.431 195.616,58.342 194.784 C 56.079 194.175,56.230 196.627,56.327 162.109 L 56.400 136.018 57.412 135.355 C 59.358 134.081,42.674 134.142,288.889 134.500 M57.908 203.897 C 54.577 204.155,54.800 201.879,54.800 235.600 C 54.800 261.944,54.873 265.526,55.423 266.311 L 56.045 267.200 207.761 267.200 L 359.476 267.200 360.238 266.358 C 361.442 265.028,361.428 205.449,360.224 204.568 C 359.556 204.080,338.495 204.000,210.156 204.000 C 128.046 204.000,60.626 203.944,60.333 203.875 C 60.040 203.806,58.948 203.816,57.908 203.897 M359.103 205.388 C 359.501 205.538,359.584 211.810,359.503 235.688 L 359.400 265.800 207.900 265.901 L 56.400 266.001 56.397 263.701 C 56.379 248.885,56.369 208.560,56.382 207.127 C 56.399 205.385,56.478 205.244,57.500 205.127 C 59.281 204.922,358.552 205.181,359.103 205.388 M55.629 282.254 C 54.372 283.852,54.513 336.508,55.776 337.432 C 56.965 338.301,84.309 338.230,86.600 337.352 C 87.480 337.014,89.100 336.457,90.200 336.114 C 91.300 335.771,92.709 335.064,93.331 334.545 C 93.953 334.025,94.618 333.600,94.808 333.600 C 96.041 333.600,101.948 326.302,102.578 324.000 C 102.729 323.450,103.291 321.987,103.827 320.749 C 105.679 316.470,105.570 300.621,103.667 297.486 C 103.238 296.779,102.765 295.627,102.617 294.928 C 102.470 294.228,102.077 293.430,101.745 293.154 C 101.413 292.879,100.810 292.011,100.404 291.227 C 99.299 289.091,93.533 284.000,92.218 284.000 C 91.985 284.000,90.940 283.546,89.897 282.990 C 87.511 281.720,80.905 281.220,66.329 281.208 L 56.458 281.200 55.629 282.254 M126.304 281.486 C 125.166 281.659,124.000 282.927,124.000 283.992 C 124.000 284.330,123.572 285.415,123.049 286.403 C 122.526 287.391,121.969 288.830,121.810 289.600 C 121.652 290.370,121.213 291.540,120.834 292.200 C 120.455 292.860,119.933 294.245,119.673 295.277 C 119.413 296.310,118.862 297.750,118.449 298.477 C 118.036 299.205,117.483 300.700,117.219 301.800 C 116.956 302.900,116.494 304.073,116.193 304.406 C 115.892 304.740,115.458 305.851,115.228 306.874 C 114.999 307.898,114.471 309.335,114.055 310.068 C 113.639 310.800,113.083 312.300,112.819 313.400 C 112.556 314.500,112.094 315.673,111.793 316.006 C 111.492 316.340,111.046 317.504,110.801 318.594 C 110.557 319.683,110.017 321.126,109.600 321.800 C 109.183 322.474,108.643 323.917,108.399 325.006 C 108.154 326.096,107.708 327.260,107.407 327.594 C 107.106 327.927,106.638 329.100,106.366 330.200 C 106.095 331.300,105.541 332.827,105.136 333.594 C 103.202 337.256,104.207 338.000,111.085 338.000 C 116.860 338.000,117.749 337.688,118.211 335.500 C 118.363 334.785,118.805 333.660,119.194 333.000 C 119.584 332.340,120.124 330.849,120.394 329.688 C 121.288 325.848,121.977 325.591,131.238 325.647 C 140.970 325.707,141.166 325.746,141.866 327.800 C 142.167 328.680,142.763 330.120,143.192 331.000 C 143.621 331.880,144.081 333.302,144.215 334.160 C 144.363 335.108,144.906 336.168,145.599 336.860 L 146.738 338.000 152.107 338.000 C 159.271 338.000,160.216 336.527,156.967 330.424 C 156.435 329.424,156.000 328.227,156.000 327.763 C 156.000 327.299,155.581 326.127,155.069 325.160 C 154.557 324.192,153.920 322.528,153.654 321.463 C 153.388 320.397,152.918 319.137,152.611 318.663 C 152.304 318.188,151.829 316.900,151.557 315.800 C 151.285 314.700,150.643 313.008,150.131 312.040 C 149.619 311.073,149.200 309.918,149.200 309.476 C 149.200 309.033,148.774 307.934,148.254 307.035 C 147.734 306.136,147.178 304.680,147.020 303.800 C 146.862 302.920,146.412 301.660,146.020 301.000 C 145.628 300.340,145.092 298.900,144.828 297.800 C 144.564 296.700,144.102 295.420,143.801 294.956 C 143.501 294.492,142.952 293.052,142.581 291.756 C 142.210 290.460,141.677 289.130,141.396 288.800 C 141.115 288.470,140.659 287.173,140.383 285.918 C 139.454 281.697,134.715 280.205,126.304 281.486 M166.505 281.525 C 163.896 281.777,163.999 280.621,164.006 309.589 C 164.010 329.900,164.126 336.025,164.517 336.800 C 165.227 338.205,175.211 338.567,176.842 337.246 L 177.800 336.471 177.911 310.030 C 177.986 292.206,177.886 283.334,177.604 282.808 C 176.858 281.414,172.669 280.930,166.505 281.525 M85.089 282.810 C 86.458 283.032,88.168 283.553,88.889 283.968 C 89.610 284.383,90.784 284.844,91.498 284.992 C 92.211 285.141,92.931 285.483,93.098 285.753 C 93.264 286.023,94.079 286.656,94.909 287.160 C 96.505 288.129,99.777 291.866,100.202 293.206 C 100.340 293.643,100.599 294.000,100.776 294.000 C 100.954 294.000,101.707 295.755,102.449 297.900 L 103.800 301.800 103.800 309.600 C 103.800 316.107,103.688 317.632,103.123 318.800 C 102.751 319.570,102.240 321.010,101.987 322.000 C 101.547 323.724,100.411 325.769,98.207 328.808 C 96.579 331.051,90.884 335.179,89.399 335.193 C 88.958 335.197,87.338 335.566,85.799 336.013 C 83.071 336.805,57.154 337.287,56.425 336.559 C 56.131 336.264,55.906 284.475,56.194 283.300 L 56.415 282.400 69.508 282.403 C 76.708 282.405,83.720 282.588,85.089 282.810 M137.252 282.900 C 138.237 283.715,139.037 285.271,139.564 287.400 C 139.837 288.500,140.383 289.940,140.776 290.600 C 141.170 291.260,141.703 292.672,141.961 293.737 C 142.219 294.803,142.682 296.063,142.989 296.537 C 143.296 297.012,143.764 298.300,144.028 299.400 C 144.292 300.500,144.823 301.940,145.209 302.600 C 145.594 303.260,146.203 304.826,146.560 306.080 C 146.918 307.333,147.370 308.458,147.565 308.578 C 147.760 308.699,148.146 309.742,148.423 310.897 C 148.700 312.052,149.348 313.789,149.863 314.758 C 150.379 315.727,150.800 316.916,150.800 317.400 C 150.800 317.884,151.221 319.073,151.737 320.042 C 152.252 321.011,152.900 322.748,153.177 323.903 C 153.454 325.058,153.840 326.101,154.035 326.222 C 154.230 326.342,154.687 327.467,155.050 328.720 C 155.413 329.974,156.046 331.627,156.455 332.394 C 156.865 333.161,157.200 334.466,157.200 335.294 L 157.200 336.800 152.394 336.800 L 147.589 336.800 146.427 335.500 C 145.688 334.673,145.098 333.399,144.805 332.000 C 144.552 330.790,143.773 328.630,143.073 327.200 L 141.800 324.600 131.664 324.600 L 121.528 324.600 120.769 325.538 C 120.352 326.054,119.815 327.224,119.577 328.138 C 119.338 329.052,118.811 330.520,118.406 331.400 C 118.001 332.280,117.550 333.585,117.403 334.300 C 116.966 336.432,116.011 336.800,110.911 336.800 L 106.400 336.800 106.400 335.562 C 106.400 334.093,107.501 330.134,108.224 329.000 C 108.505 328.560,108.943 327.390,109.197 326.400 C 109.451 325.410,110.095 323.710,110.629 322.621 C 111.163 321.533,111.600 320.268,111.600 319.810 C 111.600 319.353,111.875 318.585,112.212 318.104 C 112.549 317.623,113.249 316.008,113.767 314.515 C 114.286 313.022,115.021 310.900,115.402 309.800 C 115.783 308.700,116.522 306.900,117.044 305.800 C 117.566 304.700,118.106 303.260,118.244 302.600 C 118.382 301.940,118.731 301.020,119.020 300.556 C 119.309 300.092,119.847 298.674,120.215 297.406 C 120.584 296.138,121.209 294.538,121.604 293.850 C 121.999 293.163,122.452 291.970,122.609 291.200 C 122.767 290.430,123.187 289.260,123.541 288.600 C 123.896 287.940,124.459 286.418,124.793 285.217 C 125.532 282.559,125.700 282.494,132.024 282.440 C 135.186 282.413,136.838 282.558,137.252 282.900 M175.374 282.790 L 176.400 283.180 176.400 309.101 C 176.400 340.039,177.102 336.800,170.395 336.800 L 165.636 336.800 165.404 335.500 C 165.276 334.785,165.223 322.688,165.286 308.618 L 165.400 283.036 166.400 282.758 C 167.939 282.330,174.222 282.352,175.374 282.790 M68.844 291.758 C 66.858 292.859,66.829 293.111,66.814 309.900 C 66.798 327.562,66.673 326.840,69.843 327.434 C 71.774 327.797,81.808 327.363,83.526 326.842 C 86.587 325.916,91.600 321.045,91.600 318.998 C 91.600 318.726,91.974 317.356,92.432 315.952 C 94.444 309.782,91.907 297.884,88.062 295.458 C 87.764 295.269,87.223 294.767,86.860 294.341 C 86.497 293.916,85.210 293.288,84.000 292.946 C 82.790 292.604,81.029 292.071,80.086 291.762 C 77.841 291.026,70.170 291.023,68.844 291.758 M80.163 293.377 C 82.974 293.775,84.428 294.182,85.163 294.775 C 85.734 295.235,86.580 295.806,87.044 296.045 C 87.509 296.283,88.198 297.045,88.576 297.739 C 88.953 298.433,89.600 299.630,90.013 300.400 C 90.480 301.270,90.952 303.493,91.260 306.275 C 92.297 315.652,90.492 321.109,85.169 324.686 L 83.000 326.144 76.386 326.316 C 70.879 326.460,69.689 326.389,69.279 325.895 C 68.353 324.780,68.448 294.652,69.381 293.621 C 70.301 292.605,74.104 292.519,80.163 293.377 M131.031 297.636 C 129.652 299.275,129.024 300.562,128.443 302.937 C 128.183 304.003,127.723 305.263,127.421 305.737 C 127.119 306.212,126.586 307.740,126.236 309.132 C 125.886 310.525,125.330 312.050,125.000 312.521 C 123.072 315.273,124.495 316.168,131.071 316.339 C 138.912 316.544,139.833 315.448,136.970 309.325 C 136.437 308.183,136.000 306.864,136.000 306.392 C 136.000 305.920,135.481 304.334,134.848 302.867 C 134.214 301.400,133.579 299.543,133.437 298.740 C 133.036 296.471,132.296 296.132,131.031 297.636 M132.998 301.600 C 133.366 303.030,133.903 304.470,134.190 304.800 C 134.478 305.130,134.838 306.210,134.990 307.200 C 135.142 308.190,135.712 309.872,136.256 310.937 C 136.801 312.002,137.191 313.352,137.123 313.937 L 137.000 315.000 132.358 315.112 C 126.780 315.247,125.288 314.861,126.151 313.505 C 126.468 313.007,126.942 311.520,127.205 310.200 C 127.468 308.880,127.924 307.527,128.219 307.194 C 128.514 306.860,128.953 305.703,129.195 304.622 C 129.561 302.988,131.907 298.568,132.231 298.900 C 132.285 298.955,132.630 300.170,132.998 301.600 " stroke="none" fill="#948c8c" fill-rule="evenodd"></path></g></svg>