<?xml version="1.0" encoding="utf-8"?>
<svg version="1.1" xmlns="http://www.w3.org/2000/svg" width="492" height="235">
<path fill="#FF6600" d="M0,0 h85.8l39.5,72l39,-72h327.6l-38.3,74.5h-82l-82.8,156h-88l82.8,-156h-71.5l-86.8,159.7z"/>
<path fill="#FFFFFF" d="M10.2,6.5 h72.8l42.5,78l42.5,-78h313.3l-30.5,61.7h-82.5l-82.8,156h-74l82.8,-156h-85.8l-82.5,152.2z"/>
<path fill="#660000" d="M19.6,10.5h60.2l45.1,83.8l45.7,-83.5h301.7l-27,52.4h-82l-82.8,156h-61l82.8,-156h-97l-79.8,145.7l-105.9,-198.4z"/>
</svg>